<?xml version="1.0" standalone="no"?>
<!DOCTYPE svg PUBLIC "-//W3C//DTD SVG 20010904//EN"
 "http://www.w3.org/TR/2001/REC-SVG-20010904/DTD/svg10.dtd">
<svg version="1.0" xmlns="http://www.w3.org/2000/svg"
 width="512.000000pt" height="512.000000pt" viewBox="0 0 512.000000 512.000000"
 preserveAspectRatio="xMidYMid meet">
<metadata>
Created by potrace 1.11, written by Peter Selinger 2001-2013
</metadata>
<g transform="translate(0.000000,512.000000) scale(0.100000,-0.100000)"
fill="#000000" stroke="none">
<path d="M2802 4381 c-13 -7 -47 -110 -75 -221 -6 -25 -14 -47 -17 -50 -3 -3
-16 -36 -27 -75 -12 -38 -27 -83 -33 -100 -12 -33 -135 -404 -158 -475 -7 -25
-17 -54 -22 -65 -13 -33 -28 -78 -39 -115 -5 -19 -37 -116 -70 -215 -33 -99
-72 -216 -87 -260 -15 -44 -32 -93 -39 -110 -7 -16 -28 -74 -46 -127 -18 -54
-37 -98 -41 -98 -4 0 -8 1 -8 3 0 1 -27 81 -61 177 -33 96 -66 195 -74 220 -7
25 -22 74 -33 110 -11 36 -39 121 -64 190 l-44 125 -446 3 -446 2 -41 -116
c-23 -63 -41 -120 -41 -125 0 -6 -30 -99 -67 -207 -36 -108 -73 -217 -80 -242
-8 -25 -23 -67 -34 -95 -10 -27 -23 -68 -28 -90 -6 -22 -26 -85 -46 -140 -35
-96 -52 -148 -80 -245 -7 -25 -41 -126 -75 -225 -34 -99 -68 -200 -75 -225 -7
-25 -18 -58 -25 -75 -7 -16 -20 -57 -30 -90 -10 -33 -36 -112 -59 -175 -23
-63 -41 -125 -41 -137 l0 -23 442 2 442 3 19 50 c37 98 55 152 107 315 28 91
57 179 65 195 7 17 30 85 51 152 22 68 42 123 45 123 3 0 11 -19 18 -42 7 -24
20 -65 30 -93 29 -77 61 -175 76 -230 8 -27 19 -59 24 -70 10 -20 84 -244 115
-347 l17 -58 443 0 c416 0 444 1 459 18 10 10 17 24 17 30 0 6 45 146 100 311
55 164 100 305 100 313 0 7 6 24 13 38 7 14 19 48 26 75 8 28 20 64 27 80 12
27 107 312 133 395 5 19 24 73 42 120 17 47 46 133 64 192 37 117 82 252 95
283 5 11 12 30 15 43 13 46 21 32 74 -128 12 -36 49 -148 83 -250 33 -102 83
-250 111 -330 27 -80 57 -172 67 -205 10 -33 25 -78 33 -100 8 -22 22 -60 30
-85 34 -107 220 -661 243 -727 l26 -73 445 0 445 0 -7 32 c-4 18 -18 65 -32
103 -13 39 -30 90 -38 115 -8 25 -42 124 -75 220 -34 96 -67 195 -75 220 -35
117 -56 182 -84 260 -17 47 -37 108 -45 135 -8 28 -31 95 -51 150 -20 55 -42
120 -50 145 -7 25 -30 92 -50 150 -20 58 -43 126 -51 153 -8 26 -20 68 -28 95
-8 26 -62 187 -121 357 -58 171 -124 366 -146 435 -23 69 -51 154 -64 190 -40
109 -86 253 -97 300 -6 25 -14 50 -18 55 -4 6 -17 40 -29 78 -37 120 22 107
-479 107 -240 0 -443 -4 -450 -9z"/>
</g>
</svg>
